<?xml version="1.0" encoding="UTF-8" standalone="no"?>
<svg width="120px" height="120px" viewBox="0 0 120 120" version="1.1" xmlns="http://www.w3.org/2000/svg" xmlns:xlink="http://www.w3.org/1999/xlink">
    <!-- Generator: Sketch 44.1 (41455) - http://www.bohemiancoding.com/sketch -->
    <title>CFW</title>
    <desc>Created with Sketch.</desc>
    <defs></defs>
    <g id="Icons---Outlined" stroke="none" stroke-width="1" fill="none" fill-rule="evenodd">
        <g id="CFW" fill-rule="nonzero">
            <g id="Product-Icon_CFW" transform="translate(8.000000, 8.000000)">
                <circle id="Oval" fill="#FFFFFF" cx="52" cy="52" r="52"></circle>
                <path d="M28.6375872,53.5501202 L28.7479568,53.4965439 C34.9550881,50.48345 37.1529239,48.6791061 38.1469418,44.5738123 L38.5812636,42.7800629 L51.0999799,56.0694252 L50.9392089,56.6190378 C50.2927984,58.8288598 47.181114,68.5045239 46.0378183,71.8574035 C44.0026224,78.9535313 37.0021917,83.4239563 29.708323,82.2853023 C22.4144544,81.1466484 17.109676,74.7552436 17.3340636,67.3804296 C17.3952568,65.06573 18.0664135,62.8082029 19.2727525,60.8474813 C21.0415298,57.8840645 23.7552055,55.6020351 26.9768943,54.3675532 C27.4360751,54.1355667 27.8528622,53.9310691 28.6375872,53.5501202 Z M39.5766143,46.7534718 C38.2006011,50.4701509 35.4956241,52.4442447 29.6213429,55.295765 L29.511018,55.3493196 C28.7093588,55.7384893 28.2985925,55.9401729 27.833275,56.175669 L27.7362581,56.218468 C24.9142923,57.2884876 22.5368954,59.2810189 20.9831575,61.8839826 C19.9543576,63.5562876 19.3852536,65.4705466 19.3332518,67.4372682 C19.1394229,73.8079545 23.7194482,79.3261485 30.0168089,80.3092364 C36.3141696,81.2923244 42.3581826,77.4326609 44.1299752,71.2592929 C45.2007619,68.1155729 47.9676605,59.5247012 48.8559773,56.6040678 L39.5766143,46.7534718 Z" id="Shape" fill="#0075C9"></path>
                <path d="M55.0997783,55.2634908 L55.6614777,55.1390876 C57.5697623,54.7164474 66.6625853,52.8989364 71.3232269,51.9958461 C78.585063,50.1716779 86.0528724,54.1212653 88.6323885,61.1503442 C91.2119046,68.1794231 88.0715479,76.0219722 81.3746665,79.3173896 C79.3195423,80.3899245 77.0174635,80.9002649 74.7133921,80.7971731 C71.2468555,80.6830846 67.9206261,79.4007504 65.3532176,77.2185087 C65.0648597,77.0195417 64.7669038,76.8107596 64.3974942,76.5495069 C64.2421487,76.439644 64.0992957,76.3383421 63.8021451,76.1274919 C58.1682996,72.1309855 55.4308732,71.0412547 51.3303066,72.1741741 L49.5501593,72.6659996 L55.0997783,55.2634908 Z M52.5419241,69.8671989 C56.5063653,69.2630036 59.620009,70.7086801 64.9593105,74.4962444 C65.2565029,74.707124 65.3981876,74.8075973 65.5523145,74.9165985 C65.9159502,75.1737677 66.2080048,75.3784148 66.5676728,75.63254 C68.8696394,77.5834019 71.7633774,78.6990012 74.7909542,78.7987124 C76.7546647,78.8865161 78.7067011,78.4537755 80.470445,77.5336229 C86.2706078,74.6791947 88.9819205,67.9081157 86.7548248,61.8393684 C84.5277291,55.7706212 78.0801919,52.360637 71.7573942,53.9473943 C67.4253973,54.7882038 59.3562537,56.3991588 56.6544862,56.9710167 L52.5419241,69.8671989 Z" id="Shape" fill="#0075C9"></path>
                <path d="M65.5849779,33.4370082 C65.5717481,33.6254306 65.5717481,33.6254306 65.5584699,33.8134393 C65.0673666,40.7667277 65.5282672,43.5632699 68.600006,46.4754379 L69.9416752,47.7474099 L52.1809036,51.9606692 L51.785065,51.5498932 C50.4919681,50.2080003 45.12395,44.3285269 41.0001115,39.7697391 C35.6772426,34.4949951 35.1972897,26.0522178 39.8880831,20.2082196 C44.5788766,14.3642215 52.9255455,13.0062958 59.2062613,17.0490242 C61.1857191,18.2558186 62.8110497,19.9643573 63.9114277,21.9903691 C65.5973687,25.0019117 66.2212469,28.4924723 65.6836749,31.900646 C65.6590538,32.3472399 65.6296382,32.7990986 65.5849779,33.4370082 Z M65.9958099,46.6279545 C63.4537891,43.5792707 63.0988508,40.2504175 63.5634397,33.6725325 C63.5767026,33.4847409 63.5767026,33.4847409 63.5898614,33.2973295 C63.6355922,32.6441288 63.66495,32.1912521 63.6894736,31.740018 L63.70076,31.6350465 C64.1813626,28.655441 63.6406004,25.600865 62.1601194,22.956162 C61.2218298,21.2287325 59.8436387,19.7799855 58.1445047,18.7437449 C52.7040376,15.2421683 45.4977131,16.4145705 41.4477884,21.460146 C37.3978637,26.5057214 37.8122442,33.7950238 42.4454376,38.3884068 C46.2463784,42.5882118 51.0841671,47.8899387 52.8340971,49.7502123 L65.9958099,46.6279545 Z" id="Shape" fill="#0075C9"></path>
            </g>
        </g>
    </g>
</svg>