<?xml version="1.0" encoding="UTF-8" standalone="no"?>
<svg width="120px" height="120px" viewBox="0 0 120 120" version="1.1" xmlns="http://www.w3.org/2000/svg" xmlns:xlink="http://www.w3.org/1999/xlink">
    <!-- Generator: Sketch 44.1 (41455) - http://www.bohemiancoding.com/sketch -->
    <title>CGN</title>
    <desc>Created with Sketch.</desc>
    <defs></defs>
    <g id="Icons---Outlined" stroke="none" stroke-width="1" fill="none" fill-rule="evenodd">
        <g id="CGN">
            <g id="Product-Icon_CGN" transform="translate(8.000000, 8.000000)">
                <circle id="Oval" fill="#FFFFFF" fill-rule="nonzero" cx="52" cy="52" r="52"></circle>
                <path d="M19.5959465,48.6400974 C21.2762243,32.222075 34.9586501,19.6483117 51.4598784,19.3580429 C67.9611068,19.0677742 82.0772942,31.1525393 84.333964,47.501308 C84.4094815,48.0484053 84.9142106,48.4306964 85.461308,48.3551789 C86.0084053,48.2796614 86.3906964,47.7749323 86.3151789,47.2278349 C83.9200922,29.8762853 68.9380631,17.0502794 51.4247024,17.3583523 C33.9113416,17.6664252 19.3896798,31.0114228 17.6063392,48.436474 C17.5501101,48.9858889 17.9499163,49.4768604 18.4993312,49.5330894 C19.0487461,49.5893184 19.5397175,49.1895123 19.5959465,48.6400974 Z" id="Shape" fill="#0075C9" fill-rule="nonzero"></path>
                <path d="M90.1480371,39.1746835 L84.8886085,47.7323978 C84.599431,48.2029239 84.7464431,48.8187854 85.2169692,49.1079629 C85.6874953,49.3971404 86.3033568,49.2501283 86.5925343,48.7796022 L91.8519629,40.2218879 C92.1411404,39.7513618 91.9941283,39.1355003 91.5236022,38.8463228 C91.0530761,38.5571453 90.4372146,38.7041574 90.1480371,39.1746835 Z" id="Shape" fill="#0075C9" fill-rule="nonzero"></path>
                <path d="M75.5443573,43.9631782 L84.7855002,49.0146068 C85.2701101,49.2795061 85.8777074,49.1013955 86.1426068,48.6167855 C86.4075061,48.1321756 86.2293955,47.5245783 85.7447855,47.2596789 L76.5036427,42.2082504 C76.0190327,41.943351 75.4114354,42.1214617 75.1465361,42.6060716 C74.8816368,43.0906816 75.0597474,43.6982789 75.5443573,43.9631782 Z" id="Shape" fill="#0075C9" fill-rule="nonzero"></path>
                <path d="M12.2516324,40.4886573 L17.5110609,49.0612288 C17.7998744,49.5319784 18.415622,49.6794668 18.8863716,49.3906533 C19.3571213,49.1018399 19.5046097,48.4860923 19.2157962,48.0153427 L13.9563676,39.4427712 C13.6675542,38.9720216 13.0518066,38.8245332 12.581057,39.1133467 C12.1103073,39.4021601 11.9628189,40.0179077 12.2516324,40.4886573 Z" id="Shape" fill="#0075C9" fill-rule="nonzero"></path>
                <path d="M27.6008508,42.4902665 L18.3745651,47.526838 C17.8898063,47.7914647 17.711354,48.3989618 17.9759808,48.8837206 C18.2406076,49.3684794 18.8481047,49.5469317 19.3328635,49.2823049 L28.5591492,44.2457335 C29.043908,43.9811067 29.2223603,43.3736096 28.9577335,42.8888508 C28.6931067,42.404092 28.0856096,42.2256397 27.6008508,42.4902665 Z" id="Shape" fill="#0075C9" fill-rule="nonzero"></path>
                <path d="M14.434296,66.3641876 L14.5839591,67.0332697 L14.6367814,67.0332697 L14.8040519,66.3641876 L16.9961759,59.6469562 L18.7657218,59.6469562 L15.2618448,69.1725714 L13.9500919,69.1725714 L10.4021964,59.6469562 L12.180546,59.6469562 L14.434296,66.3641876 Z M27.0324064,64.8587531 L28.8019523,64.8587531 L28.8019523,66.2145246 L27.0324064,66.2145246 L27.0324064,69.1725714 L25.306879,69.1725714 L25.306879,66.2145246 L19.5492521,66.2145246 L19.5492521,65.2373126 L25.2012345,56.3543683 L27.0324064,56.3543683 L27.0324064,64.8587531 Z M21.3980314,64.8587531 L25.306879,64.8587531 L25.306879,58.8458185 L25.2540568,58.8370148 L25.0867862,59.2772003 L21.3980314,64.8587531 Z" id="v4" fill="#0075C9"></path>
                <path d="M78.6468674,66.3641876 L78.7965305,67.0332697 L78.8493528,67.0332697 L79.0166233,66.3641876 L81.2087473,59.6469562 L82.9782932,59.6469562 L79.4744163,69.1725714 L78.1626633,69.1725714 L74.6147678,59.6469562 L76.3931174,59.6469562 L78.6468674,66.3641876 Z M89.2201243,56.1694904 C89.660312,56.1694904 90.0960914,56.2193776 90.5274754,56.3191535 C90.9588593,56.4189293 91.3154061,56.5451146 91.5971262,56.697713 L91.2273704,58.0270734 C90.939781,57.8803441 90.6389906,57.7614952 90.32499,57.6705231 C90.0109894,57.579551 89.6427045,57.5340656 89.2201243,57.5340656 C88.3045338,57.5340656 87.5664967,57.9008832 87.005991,58.6345294 C86.4454852,59.3681757 86.1652366,60.324836 86.1652366,61.5045392 L86.1652366,61.7070246 C86.5408635,61.378351 86.9707737,61.1215787 87.4549802,60.9366998 C87.9391868,60.751821 88.4600678,60.659383 89.0176389,60.659383 C90.1621271,60.659383 91.0747693,61.055546 91.755593,61.8478839 C92.4364167,62.6402219 92.7768235,63.6438349 92.7768235,64.8587531 C92.7768235,66.1851855 92.4144077,67.2665638 91.6895652,68.1029205 C90.9647227,68.9392773 89.9977915,69.3574494 88.7887424,69.3574494 C87.5327401,69.3574494 86.4939126,68.9025955 85.6722288,67.9928742 C84.850545,67.0831528 84.4397092,65.8007584 84.4397092,64.1456525 L84.4397092,61.6982208 C84.4397092,60.0548533 84.8974976,58.7225717 85.8130881,57.7013361 C86.7286787,56.6801005 87.864346,56.1694904 89.2201243,56.1694904 Z M88.6302756,61.9535285 C88.0374895,61.9535285 87.5327484,62.0738446 87.1160374,62.3144806 C86.6993263,62.5551166 86.3823959,62.8749815 86.1652366,63.2740851 L86.1652366,64.312923 C86.1652366,65.4926262 86.4146726,66.4023339 86.913552,67.0420734 C87.4124315,67.6818129 88.0374887,68.0016779 88.7887424,68.0016779 C89.498912,68.0016779 90.052073,67.7008874 90.448242,67.0992975 C90.8444109,66.4977076 91.0424924,65.7508669 91.0424924,64.8587531 C91.0424924,64.0135926 90.8297382,63.3181064 90.4042234,62.7722736 C89.9787086,62.2264408 89.3873986,61.9535285 88.6302756,61.9535285 Z" id="v6" fill="#0075C9"></path>
            </g>
        </g>
    </g>
</svg>