<svg id="Layer_1" data-name="Layer 1" xmlns="http://www.w3.org/2000/svg" viewBox="0 0 70 70"><defs><style>.cls-1{fill:#0077c0;}.cls-2{fill:none;stroke:#fff;stroke-miterlimit:10;stroke-width:1.5px;}</style></defs><title>Product-Icon</title><circle class="cls-1" cx="35" cy="35" r="35"/><path class="cls-2" d="M49.67,26.6a6.18,6.18,0,0,0-9.34-5.32,12,12,0,0,0-22.58,5.58c0,0.15,0,.3,0,0.45a10.45,10.45,0,0,0,4.63,19.81H44.24"/><path class="cls-2" d="M48.88,40.39a2.56,2.56,0,1,1,2.56-2.56A2.56,2.56,0,0,1,48.88,40.39Z"/><path class="cls-2" d="M50,47H47.76a0.33,0.33,0,0,1-.33-0.33v-2a6.89,6.89,0,0,1-2.38-1l-1.41,1.41a0.33,0.33,0,0,1-.47,0L41.6,43.53a0.33,0.33,0,0,1,0-.47L43,41.66a6.91,6.91,0,0,1-1-2.38H40a0.33,0.33,0,0,1-.33-0.33V36.72A0.33,0.33,0,0,1,40,36.38h2A6.89,6.89,0,0,1,43,34L41.6,32.6a0.33,0.33,0,0,1,0-.47l1.58-1.58a0.33,0.33,0,0,1,.47,0L45.05,32a6.93,6.93,0,0,1,2.38-1V29a0.33,0.33,0,0,1,.33-0.33H50a0.33,0.33,0,0,1,.33.33v2a6.89,6.89,0,0,1,2.38,1l1.41-1.41a0.33,0.33,0,0,1,.47,0l1.58,1.58a0.33,0.33,0,0,1,0,.47L54.75,34a6.9,6.9,0,0,1,1,2.38h2a0.33,0.33,0,0,1,.33.33v2.23a0.33,0.33,0,0,1-.33.33h-2a6.89,6.89,0,0,1-1,2.38l1.41,1.41a0.33,0.33,0,0,1,0,.47l-1.58,1.58a0.34,0.34,0,0,1-.47,0L52.7,43.7a6.87,6.87,0,0,1-2.38,1v2A0.33,0.33,0,0,1,50,47Z"/><line class="cls-2" x1="34.44" y1="47.07" x2="34.44" y2="51.17"/><line class="cls-2" x1="23.96" y1="53.37" x2="31.4" y2="53.37"/><line class="cls-2" x1="44.78" y1="53.37" x2="37.38" y2="53.37"/><circle class="cls-2" cx="34.35" cy="53.37" r="1.75"/></svg>