<svg id="Layer_1" data-name="Layer 1" xmlns="http://www.w3.org/2000/svg" viewBox="0 0 70 70"><defs><style>.cls-1{fill:#0077c0;}.cls-2,.cls-3{fill:none;stroke:#fff;stroke-miterlimit:10;stroke-width:1.5px;}.cls-2{stroke-linecap:round;}</style></defs><title>Product-Icon</title><circle class="cls-1" cx="35" cy="35" r="35"/><line class="cls-2" x1="33.6" y1="40.2" x2="28.42" y2="35.02"/><line class="cls-2" x1="33.6" y1="40.2" x2="44.01" y2="29.8"/><path class="cls-3" d="M50.39,18.12c-12.64,0-14.79-4.94-14.8-5A0.64,0.64,0,0,0,35,12.72h0a0.64,0.64,0,0,0-.58.4c0,0.05-2.2,5-14.8,5a0.64,0.64,0,0,0-.63.65V40.93c0,9.07,15.13,16,15.76,16.29a0.6,0.6,0,0,0,.26.05,0.59,0.59,0,0,0,.25-0.05C35.9,56.93,51,50,51,40.93V18.78A0.65,0.65,0,0,0,50.39,18.12Z"/></svg>