<svg id="Layer_1" data-name="Layer 1" xmlns="http://www.w3.org/2000/svg" viewBox="0 0 70 70"><defs><style>.cls-1{fill:#0077c0;}.cls-2{fill:none;stroke:#fff;stroke-miterlimit:10;stroke-width:1.5px;}</style></defs><title>Product-Icon</title><circle class="cls-1" cx="35" cy="35" r="35"/><path class="cls-2" d="M33.64,37.92l-7.31-7.76c-1,4.13-4.62,5.39-7.9,7.05a9.68,9.68,0,0,0-4.88,4.09,8.18,8.18,0,0,0-1.21,4.07,9.18,9.18,0,0,0,18,2.81C31.12,45.89,33.21,39.39,33.64,37.92Z"/><path class="cls-2" d="M37.61,37.77L34.37,47.93c4.09-1.13,7,1.42,10,3.49a9.68,9.68,0,0,0,5.94,2.29,8.18,8.18,0,0,0,4.15-.92,9.18,9.18,0,0,0-6.29-17.14C45.8,36.11,39.1,37.44,37.61,37.77Z"/><path class="cls-2" d="M35.34,34.23l10.37-2.46c-3.08-2.92-2.37-6.69-2.17-10.37a9.68,9.68,0,0,0-1.11-6.27,8.18,8.18,0,0,0-2.93-3.08A9.18,9.18,0,0,0,28.07,26.29C29.69,28.08,34.28,33.13,35.34,34.23Z"/></svg>