<svg id="Layer_1" data-name="Layer 1" xmlns="http://www.w3.org/2000/svg" viewBox="0 0 70 70"><defs><style>.cls-1{fill:#0077c0;}.cls-2{fill:#fff;}</style></defs><title>Product-Icon</title><circle class="cls-1" cx="35" cy="35" r="35"/><polygon class="cls-2" points="25.84 39 30 39 30 46 31 46 31 38 28.6 38 32.88 33.38 37.05 38 35 38 35 47 36 47 36 39 39.8 39 32.82 31.34 25.84 39"/><polygon class="cls-2" points="41.02 45.88 40 45.86 40 55 42.04 55 37.77 59.63 33.59 55 36 55 36 45.84 35 45.83 35 54 30.84 54 37.82 61.66 44.8 54 41 54 41.02 45.88"/><path class="cls-2" d="M53.09,28.2a6.83,6.83,0,0,0,.41-2.33,6.92,6.92,0,0,0-9.78-6.32A12.72,12.72,0,0,0,20.1,26.13a11.16,11.16,0,0,0,5.39,20.95l0.84,0,4.68,0V46l-4.61,0c-0.23,0-.66-0.06-0.9-0.06A9.84,9.84,0,0,1,21.2,27.33l0.44-.26,0-.51c0-.14,0-0.29,0-0.43A11.22,11.22,0,0,1,42.75,20.9l0.37,0.7,0.68-.4A5.42,5.42,0,0,1,52,25.86a5.37,5.37,0,0,1-.58,2.43L51,29.07l0.83,0.27a8.31,8.31,0,0,1,5.78,7.94,8.53,8.53,0,0,1-8.34,8.54l-0.87,0-7.44,0v1.28l7.54,0c0.25,0,.51-0.05.77-0.05A9.81,9.81,0,0,0,53.09,28.2Z"/></svg>