<svg id="Layer_1" data-name="Layer 1" xmlns="http://www.w3.org/2000/svg" viewBox="0 0 70 70"><defs><style>.cls-1{fill:#0077c0;}.cls-2,.cls-3{fill:none;stroke:#fff;stroke-miterlimit:10;stroke-width:1.5px;}.cls-2{stroke-linecap:round;}</style></defs><title>Product-Icon</title><circle class="cls-1" cx="35" cy="35.08" r="35"/><path class="cls-2" d="M51.28,48.27v2.67a3.19,3.19,0,0,1-3.18,3.18H21.72a3.19,3.19,0,0,1-3.18-3.18V30.89a3.19,3.19,0,0,1,3.18-3.18H48.1a3.19,3.19,0,0,1,3.18,3.18V33.5"/><path class="cls-2" d="M45,27.38V23.48A10.13,10.13,0,0,0,34.87,13.37H34.6A10.13,10.13,0,0,0,24.49,23.48v3.89"/><circle class="cls-3" cx="47.44" cy="40.88" r="8.32" transform="translate(-15.01 45.52) rotate(-45)"/><line class="cls-2" x1="53.33" y1="46.77" x2="58.13" y2="51.57"/><line class="cls-2" x1="46.63" y1="43.24" x2="44.31" y2="40.93"/><line class="cls-2" x1="46.63" y1="43.24" x2="51.28" y2="38.59"/></svg>