<?xml version="1.0" encoding="UTF-8" standalone="no"?>
<svg width="120px" height="120px" viewBox="0 0 120 120" version="1.1" xmlns="http://www.w3.org/2000/svg" xmlns:xlink="http://www.w3.org/1999/xlink">
    <!-- Generator: Sketch 44.1 (41455) - http://www.bohemiancoding.com/sketch -->
    <title>SSLi </title>
    <desc>Created with Sketch.</desc>
    <defs></defs>
    <g id="Icons---Outlined" stroke="none" stroke-width="1" fill="none" fill-rule="evenodd">
        <g id="SSLi-" fill-rule="nonzero">
            <g id="Product-Icon_SSLi" transform="translate(8.000000, 8.000000)">
                <ellipse id="Oval" fill="#FFFFFF" cx="52" cy="51.8165937" rx="52" ry="51.6984258"></ellipse>
                <path d="M75.1874286,71.2995147 L75.1874286,75.2433661 C75.1810123,77.2798936 73.517116,78.9341401 71.4597454,78.9405422 L32.2697143,78.9405373 C30.2154554,78.9341401 28.5515592,77.2798936 28.5451379,75.2402179 L28.5451429,45.6275536 C28.5515592,43.591026 30.2154554,41.9367795 32.272826,41.9303775 L71.4628571,41.9303823 C73.517116,41.9367795 75.1810123,43.591026 75.1874335,45.6307017 L75.1874286,49.482779 C75.1874286,50.0350638 75.6351438,50.482779 76.1874286,50.482779 C76.7397133,50.482779 77.1874286,50.0350638 77.1874286,49.482779 L77.1874286,45.6275536 C77.1775322,42.4824616 74.6204439,39.9402031 71.4659689,39.9303871 L32.2697143,39.9303823 C29.1121275,39.9402031 26.5550392,42.4824616 26.5451478,45.6244054 L26.5451429,75.2433661 C26.5550392,78.388458 29.1121275,80.9307165 32.2666025,80.9405325 L71.4628571,80.9405373 C74.6204439,80.9307165 77.1775322,78.388458 77.1874236,75.2465142 L77.1874286,71.2995147 C77.1874286,70.74723 76.7397133,70.2995147 76.1874286,70.2995147 C75.6351438,70.2995147 75.1874286,70.74723 75.1874286,71.2995147 Z" id="Shape" fill="#0075C9"></path>
                <path d="M67.8571429,40.44294 L67.8571429,34.6822583 C67.8396552,25.8751623 60.657524,18.7487815 51.8068552,18.7487987 L51.4057143,18.7487987 C42.5654493,18.7661321 35.4025889,25.8874515 35.3851448,34.6802744 L35.3851429,40.428169 C35.3851429,40.9804538 35.8328581,41.428169 36.3851429,41.428169 C36.9374276,41.428169 37.3851429,40.9804538 37.3851429,40.428169 L37.3851429,34.6822583 C37.4003946,26.9955051 43.6682769,20.7639734 51.4076752,20.7487968 L51.8068571,20.7487987 C59.5570962,20.7487837 65.8418548,26.9847575 65.8571448,34.6842441 L65.8571429,40.44294 C65.8571429,40.9952247 66.3048581,41.44294 66.8571429,41.44294 C67.4094276,41.44294 67.8571429,40.9952247 67.8571429,40.44294 Z" id="Shape" fill="#0075C9"></path>
                <path d="M70.4847682,73.6752534 C63.1069106,73.6752534 57.1236254,67.7266683 57.1236254,60.3857991 C57.1236254,53.0449299 63.1069106,47.0963447 70.4847682,47.0963447 C77.8626258,47.0963447 83.8459111,53.0449299 83.8459111,60.3857991 C83.8459111,67.7266683 77.8626258,73.6752534 70.4847682,73.6752534 Z M70.4847682,71.6752534 C76.760652,71.6752534 81.8459111,66.6194863 81.8459111,60.3857991 C81.8459111,54.1521118 76.760652,49.0963447 70.4847682,49.0963447 C64.2088844,49.0963447 59.1236254,54.1521118 59.1236254,60.3857991 C59.1236254,66.6194863 64.2088844,71.6752534 70.4847682,71.6752534 Z" id="Oval" fill="#0075C9"></path>
                <path d="M78.5280955,69.7930281 L85.659524,76.8830979 C86.0511824,77.2724849 86.6843447,77.2706435 87.0737316,76.8789851 C87.4631185,76.4873268 87.4612772,75.8541645 87.0696188,75.4647776 L79.9381903,68.3747077 C79.5465319,67.9853208 78.9133696,67.9871622 78.5239827,68.3788205 C78.1345957,68.7704789 78.1364371,69.4036412 78.5280955,69.7930281 Z" id="Shape" fill="#0075C9"></path>
                <path d="M69.9823713,63.1590311 L66.5355141,59.746935 C66.1430157,59.3583949 65.5098589,59.3616037 65.1213187,59.7541021 C64.7327786,60.1466006 64.7359874,60.7797574 65.1284859,61.1682975 L68.575343,64.5803936 C68.9678414,64.9689338 69.6009983,64.965725 69.9895384,64.5732265 C70.3780785,64.1807281 70.3748697,63.5475713 69.9823713,63.1590311 Z" id="Shape" fill="#0075C9"></path>
                <path d="M69.9839045,64.5788726 L76.892476,57.7103674 C77.2841343,57.3209805 77.2859757,56.6878182 76.8965888,56.2961598 C76.5072018,55.9045015 75.8740395,55.9026601 75.4823812,56.2920471 L68.5738097,63.1605522 C68.1821514,63.5499391 68.18031,64.1831014 68.569697,64.5747598 C68.9590839,64.9664181 69.5922462,64.9682595 69.9839045,64.5788726 Z" id="Shape" fill="#0075C9"></path>
            </g>
        </g>
    </g>
</svg>