<?xml version="1.0" encoding="UTF-8" standalone="no"?>
<svg width="120px" height="120px" viewBox="0 0 120 120" version="1.1" xmlns="http://www.w3.org/2000/svg" xmlns:xlink="http://www.w3.org/1999/xlink">
    <!-- Generator: Sketch 44.1 (41455) - http://www.bohemiancoding.com/sketch -->
    <title>Thunder ADC</title>
    <desc>Created with Sketch.</desc>
    <defs></defs>
    <g id="Icons---Outlined" stroke="none" stroke-width="1" fill="none" fill-rule="evenodd">
        <g id="Thunder-ADC" fill-rule="nonzero">
            <g id="Product-Icon_ADC" transform="translate(8.000000, 8.000000)">
                <circle id="Oval" fill="#FFFFFF" cx="52" cy="52" r="52"></circle>
                <path d="M13.0742857,53 L39.7725714,53 C40.3248562,53 40.7725714,52.5522847 40.7725714,52 C40.7725714,51.4477153 40.3248562,51 39.7725714,51 L13.0742857,51 C12.522001,51 12.0742857,51.4477153 12.0742857,52 C12.0742857,52.5522847 12.522001,53 13.0742857,53 Z" id="Shape" fill="#0075C9"></path>
                <path d="M49.7268571,58.6457143 C46.0565305,58.6457143 43.0811429,55.6703267 43.0811429,52 C43.0811429,48.3296733 46.0565305,45.3542857 49.7268571,45.3542857 C53.3971838,45.3542857 56.3725714,48.3296733 56.3725714,52 C56.3725714,55.6703267 53.3971838,58.6457143 49.7268571,58.6457143 Z M49.7268571,56.6457143 C52.2926143,56.6457143 54.3725714,54.5657572 54.3725714,52 C54.3725714,49.4342428 52.2926143,47.3542857 49.7268571,47.3542857 C47.1611,47.3542857 45.0811429,49.4342428 45.0811429,52 C45.0811429,54.5657572 47.1611,56.6457143 49.7268571,56.6457143 Z" id="Oval" fill="#0075C9"></path>
                <path d="M34.5043218,58.2311789 C34.1137975,58.6217032 34.1137975,59.2548682 34.5043218,59.6453925 C34.8948461,60.0359168 35.5280111,60.0359168 35.9185354,59.6453925 L42.8568211,52.7071068 C43.2473454,52.3165825 43.2473454,51.6834175 42.8568211,51.2928932 L35.9185354,44.3546075 C35.5280111,43.9640832 34.8948461,43.9640832 34.5043218,44.3546075 C34.1137975,44.7451318 34.1137975,45.3782968 34.5043218,45.7688211 L40.7355007,52 L34.5043218,58.2311789 Z" id="Shape" fill="#0075C9"></path>
                <path d="M59.0422857,53 L88.5485714,53 C89.1008562,53 89.5485714,52.5522847 89.5485714,52 C89.5485714,51.4477153 89.1008562,51 88.5485714,51 L59.0422857,51 C58.490001,51 58.0422857,51.4477153 58.0422857,52 C58.0422857,52.5522847 58.490001,53 59.0422857,53 Z" id="Shape" fill="#0075C9"></path>
                <path d="M83.2803218,58.2311789 C82.8897975,58.6217032 82.8897975,59.2548682 83.2803218,59.6453925 C83.6708461,60.0359168 84.3040111,60.0359168 84.6945354,59.6453925 L91.6328211,52.7071068 C92.0233454,52.3165825 92.0233454,51.6834175 91.6328211,51.2928932 L84.6945354,44.3546075 C84.3040111,43.9640832 83.6708461,43.9640832 83.2803218,44.3546075 C82.8897975,44.7451318 82.8897975,45.3782968 83.2803218,45.7688211 L89.5115007,52 L83.2803218,58.2311789 Z" id="Shape" fill="#0075C9"></path>
                <path d="M58.2191068,52.7071068 L77.0876782,33.8385354 C77.4782025,33.4480111 77.4782025,32.8148461 77.0876782,32.4243218 C76.6971539,32.0337975 76.0639889,32.0337975 75.6734646,32.4243218 L56.8048932,51.2928932 C56.4143689,51.6834175 56.4143689,52.3165825 56.8048932,52.7071068 C57.1954175,53.0976311 57.8285825,53.0976311 58.2191068,52.7071068 Z" id="Shape" fill="#0075C9"></path>
                <path d="M77.0742857,41.2434286 C77.0742857,41.7957133 77.522001,42.2434286 78.0742857,42.2434286 C78.6265705,42.2434286 79.0742857,41.7957133 79.0742857,41.2434286 L79.0742857,31.4377143 C79.0742857,30.8854295 78.6265705,30.4377143 78.0742857,30.4377143 L68.2685714,30.4377143 C67.7162867,30.4377143 67.2685714,30.8854295 67.2685714,31.4377143 C67.2685714,31.989999 67.7162867,32.4377143 68.2685714,32.4377143 L77.0742857,32.4377143 L77.0742857,41.2434286 Z" id="Shape" fill="#0075C9"></path>
                <path d="M56.8048932,52.7071068 L75.6734646,71.5756782 C76.0639889,71.9662025 76.6971539,71.9662025 77.0876782,71.5756782 C77.4782025,71.1851539 77.4782025,70.5519889 77.0876782,70.1614646 L58.2191068,51.2928932 C57.8285825,50.9023689 57.1954175,50.9023689 56.8048932,51.2928932 C56.4143689,51.6834175 56.4143689,52.3165825 56.8048932,52.7071068 Z" id="Shape" fill="#0075C9"></path>
                <path d="M68.2685714,71.5622857 C67.7162867,71.5622857 67.2685714,72.010001 67.2685714,72.5622857 C67.2685714,73.1145705 67.7162867,73.5622857 68.2685714,73.5622857 L78.0742857,73.5622857 C78.6265705,73.5622857 79.0742857,73.1145705 79.0742857,72.5622857 L79.0742857,62.7565714 C79.0742857,62.2042867 78.6265705,61.7565714 78.0742857,61.7565714 C77.522001,61.7565714 77.0742857,62.2042867 77.0742857,62.7565714 L77.0742857,71.5622857 L68.2685714,71.5622857 Z" id="Shape" fill="#0075C9"></path>
            </g>
        </g>
    </g>
</svg>